<mxfile host="Electron" modified="2023-09-23T09:22:51.482Z" agent="Mozilla/5.0 (Windows NT 10.0; Win64; x64) AppleWebKit/537.36 (KHTML, like Gecko) draw.io/21.7.5 Chrome/114.0.5735.289 Electron/25.8.1 Safari/537.36" etag="Rv30gvtUOoxTvY_w_C6x" version="21.7.5" type="device">
  <diagram name="第 1 页" id="1oMsVFiBbRYVfmmcZz7F">
    <mxGraphModel dx="1082" dy="597" grid="1" gridSize="10" guides="1" tooltips="1" connect="1" arrows="1" fold="1" page="1" pageScale="1" pageWidth="827" pageHeight="1169" math="0" shadow="0">
      <root>
        <mxCell id="0" />
        <mxCell id="1" parent="0" />
        <mxCell id="bERkXWPhiUFf7A1_bs-E-6" value="" style="edgeStyle=orthogonalEdgeStyle;rounded=0;orthogonalLoop=1;jettySize=auto;html=1;" edge="1" parent="1" source="bERkXWPhiUFf7A1_bs-E-2" target="bERkXWPhiUFf7A1_bs-E-5">
          <mxGeometry relative="1" as="geometry" />
        </mxCell>
        <mxCell id="bERkXWPhiUFf7A1_bs-E-8" value="" style="edgeStyle=orthogonalEdgeStyle;rounded=0;orthogonalLoop=1;jettySize=auto;html=1;" edge="1" parent="1" source="bERkXWPhiUFf7A1_bs-E-2" target="bERkXWPhiUFf7A1_bs-E-7">
          <mxGeometry relative="1" as="geometry" />
        </mxCell>
        <mxCell id="bERkXWPhiUFf7A1_bs-E-2" value="if语句" style="ellipse;whiteSpace=wrap;html=1;" vertex="1" parent="1">
          <mxGeometry x="124" y="80" width="90" height="40" as="geometry" />
        </mxCell>
        <mxCell id="bERkXWPhiUFf7A1_bs-E-5" value="条件" style="ellipse;whiteSpace=wrap;html=1;" vertex="1" parent="1">
          <mxGeometry x="44" y="170" width="90" height="40" as="geometry" />
        </mxCell>
        <mxCell id="bERkXWPhiUFf7A1_bs-E-7" value="if子句" style="ellipse;whiteSpace=wrap;html=1;" vertex="1" parent="1">
          <mxGeometry x="214" y="170" width="90" height="40" as="geometry" />
        </mxCell>
        <mxCell id="bERkXWPhiUFf7A1_bs-E-10" style="edgeStyle=orthogonalEdgeStyle;rounded=0;orthogonalLoop=1;jettySize=auto;html=1;exitX=0.5;exitY=1;exitDx=0;exitDy=0;entryX=0.5;entryY=0;entryDx=0;entryDy=0;" edge="1" parent="1" source="bERkXWPhiUFf7A1_bs-E-9" target="bERkXWPhiUFf7A1_bs-E-7">
          <mxGeometry relative="1" as="geometry" />
        </mxCell>
        <mxCell id="bERkXWPhiUFf7A1_bs-E-11" style="edgeStyle=orthogonalEdgeStyle;rounded=0;orthogonalLoop=1;jettySize=auto;html=1;exitX=0.5;exitY=1;exitDx=0;exitDy=0;entryX=0;entryY=0.5;entryDx=0;entryDy=0;" edge="1" parent="1" source="bERkXWPhiUFf7A1_bs-E-9" target="bERkXWPhiUFf7A1_bs-E-5">
          <mxGeometry relative="1" as="geometry">
            <Array as="points">
              <mxPoint x="360" y="50" />
              <mxPoint x="44" y="50" />
              <mxPoint x="44" y="190" />
            </Array>
          </mxGeometry>
        </mxCell>
        <mxCell id="bERkXWPhiUFf7A1_bs-E-14" style="edgeStyle=orthogonalEdgeStyle;rounded=0;orthogonalLoop=1;jettySize=auto;html=1;exitX=0.5;exitY=1;exitDx=0;exitDy=0;entryX=0.5;entryY=0;entryDx=0;entryDy=0;" edge="1" parent="1" source="bERkXWPhiUFf7A1_bs-E-9" target="bERkXWPhiUFf7A1_bs-E-12">
          <mxGeometry relative="1" as="geometry" />
        </mxCell>
        <mxCell id="bERkXWPhiUFf7A1_bs-E-9" value="if-else语句" style="ellipse;whiteSpace=wrap;html=1;" vertex="1" parent="1">
          <mxGeometry x="320.34" y="80" width="80" height="40" as="geometry" />
        </mxCell>
        <mxCell id="bERkXWPhiUFf7A1_bs-E-12" value="ELSE子句" style="ellipse;whiteSpace=wrap;html=1;" vertex="1" parent="1">
          <mxGeometry x="424" y="170" width="80" height="40" as="geometry" />
        </mxCell>
        <mxCell id="bERkXWPhiUFf7A1_bs-E-17" value="" style="edgeStyle=orthogonalEdgeStyle;rounded=0;orthogonalLoop=1;jettySize=auto;html=1;" edge="1" parent="1" source="bERkXWPhiUFf7A1_bs-E-15" target="bERkXWPhiUFf7A1_bs-E-16">
          <mxGeometry relative="1" as="geometry" />
        </mxCell>
        <mxCell id="bERkXWPhiUFf7A1_bs-E-20" value="" style="edgeStyle=orthogonalEdgeStyle;rounded=0;orthogonalLoop=1;jettySize=auto;html=1;" edge="1" parent="1" source="bERkXWPhiUFf7A1_bs-E-15" target="bERkXWPhiUFf7A1_bs-E-19">
          <mxGeometry relative="1" as="geometry" />
        </mxCell>
        <mxCell id="bERkXWPhiUFf7A1_bs-E-22" value="" style="edgeStyle=orthogonalEdgeStyle;rounded=0;orthogonalLoop=1;jettySize=auto;html=1;" edge="1" parent="1" source="bERkXWPhiUFf7A1_bs-E-15" target="bERkXWPhiUFf7A1_bs-E-21">
          <mxGeometry relative="1" as="geometry" />
        </mxCell>
        <mxCell id="bERkXWPhiUFf7A1_bs-E-24" value="" style="edgeStyle=orthogonalEdgeStyle;rounded=0;orthogonalLoop=1;jettySize=auto;html=1;" edge="1" parent="1" source="bERkXWPhiUFf7A1_bs-E-15" target="bERkXWPhiUFf7A1_bs-E-23">
          <mxGeometry relative="1" as="geometry" />
        </mxCell>
        <mxCell id="bERkXWPhiUFf7A1_bs-E-15" value="for语句" style="ellipse;whiteSpace=wrap;html=1;" vertex="1" parent="1">
          <mxGeometry x="394" y="230" width="90" height="40" as="geometry" />
        </mxCell>
        <mxCell id="bERkXWPhiUFf7A1_bs-E-16" value="初始表达式" style="ellipse;whiteSpace=wrap;html=1;" vertex="1" parent="1">
          <mxGeometry x="234" y="310" width="90" height="40" as="geometry" />
        </mxCell>
        <mxCell id="bERkXWPhiUFf7A1_bs-E-19" value="终止条件" style="ellipse;whiteSpace=wrap;html=1;" vertex="1" parent="1">
          <mxGeometry x="334" y="310" width="90" height="40" as="geometry" />
        </mxCell>
        <mxCell id="bERkXWPhiUFf7A1_bs-E-21" value="循环表达式" style="ellipse;whiteSpace=wrap;html=1;" vertex="1" parent="1">
          <mxGeometry x="454" y="310" width="90" height="40" as="geometry" />
        </mxCell>
        <mxCell id="bERkXWPhiUFf7A1_bs-E-23" value="for子句" style="ellipse;whiteSpace=wrap;html=1;" vertex="1" parent="1">
          <mxGeometry x="554" y="310" width="90" height="40" as="geometry" />
        </mxCell>
        <mxCell id="bERkXWPhiUFf7A1_bs-E-28" value="" style="edgeStyle=orthogonalEdgeStyle;rounded=0;orthogonalLoop=1;jettySize=auto;html=1;" edge="1" parent="1" source="bERkXWPhiUFf7A1_bs-E-25" target="bERkXWPhiUFf7A1_bs-E-27">
          <mxGeometry relative="1" as="geometry" />
        </mxCell>
        <mxCell id="bERkXWPhiUFf7A1_bs-E-30" value="" style="edgeStyle=orthogonalEdgeStyle;rounded=0;orthogonalLoop=1;jettySize=auto;html=1;" edge="1" parent="1" source="bERkXWPhiUFf7A1_bs-E-25" target="bERkXWPhiUFf7A1_bs-E-29">
          <mxGeometry relative="1" as="geometry" />
        </mxCell>
        <mxCell id="bERkXWPhiUFf7A1_bs-E-25" value="while语句" style="ellipse;whiteSpace=wrap;html=1;" vertex="1" parent="1">
          <mxGeometry x="604" y="40" width="100" height="40" as="geometry" />
        </mxCell>
        <mxCell id="bERkXWPhiUFf7A1_bs-E-27" value="循环条件" style="ellipse;whiteSpace=wrap;html=1;" vertex="1" parent="1">
          <mxGeometry x="544" y="130" width="100" height="40" as="geometry" />
        </mxCell>
        <mxCell id="bERkXWPhiUFf7A1_bs-E-29" value="while子句" style="ellipse;whiteSpace=wrap;html=1;" vertex="1" parent="1">
          <mxGeometry x="684" y="130" width="100" height="40" as="geometry" />
        </mxCell>
      </root>
    </mxGraphModel>
  </diagram>
</mxfile>
